<svg fill="#000000" xmlns="http://www.w3.org/2000/svg" viewBox="0 0 24 24" width="48px" height="48px"><path d="M 0.90625 0 C 0.40625 0 0 0.40625 0 0.90625 L 0 18 C 0 18.601563 0.40625 19 0.90625 19 L 9 19 L 9 21 L 3.1875 21 L 0 24 L 24 24 L 20.8125 21 L 15 21 L 15 19 L 23 19 C 23.5 19 23.90625 18.59375 23.90625 18.09375 L 23.90625 0.90625 C 24.007813 0.40625 23.59375 0 23.09375 0 Z M 2.40625 2 L 21.59375 2 C 21.792969 2 22 2.207031 22 2.40625 L 22 16.59375 C 22 16.792969 21.792969 17 21.59375 17 L 2.40625 17 C 2.207031 17 2 16.792969 2 16.59375 L 2 2.40625 C 2 2.207031 2.207031 2 2.40625 2 Z M 8.6875 4.5 L 3.6875 9.5 L 8.6875 14.5 L 10 13.1875 L 6.3125 9.5 L 10 5.8125 Z M 15.3125 4.5 L 14 5.8125 L 17.6875 9.5 L 14 13.1875 L 15.3125 14.5 L 20.3125 9.5 Z"/></svg>