<?xml version="1.0" encoding="UTF-8"?>
<svg xmlns="http://www.w3.org/2000/svg" xmlns:xlink="http://www.w3.org/1999/xlink" width="51pt" height="49pt" viewBox="0 0 51 49" version="1.1">
<g id="surface1">
<path style=" stroke:none;fill-rule:nonzero;fill:rgb(26.666667%,26.666667%,26.666667%);fill-opacity:1;" d="M 46.363281 48.871094 L 38.105469 48.871094 L 38.683594 41.890625 L 34.628906 41.890625 L 34.046875 48.871094 L 16.953125 48.871094 L 16.371094 41.890625 L 12.316406 41.890625 L 12.894531 48.871094 L 4.636719 48.871094 L 0 18.617188 L 11.589844 0 L 39.410156 0 L 51 18.617188 Z M 37.089844 9.308594 L 29.640625 9.308594 L 30.136719 12.800781 L 20.863281 12.800781 L 21.359375 9.308594 L 13.910156 9.308594 L 9.273438 18.617188 L 11.589844 37.238281 L 39.410156 37.238281 L 41.726562 18.617188 Z M 33.035156 31.058594 C 32.394531 31.058594 31.875 29.121094 31.875 26.730469 C 31.875 24.339844 32.394531 22.398438 33.035156 22.398438 C 33.675781 22.398438 34.191406 24.339844 34.191406 26.730469 C 34.191406 29.121094 33.675781 31.058594 33.035156 31.058594 Z M 18.402344 31.417969 C 17.761719 31.417969 17.242188 29.480469 17.242188 27.089844 C 17.242188 24.699219 17.761719 22.761719 18.402344 22.761719 C 19.039062 22.761719 19.558594 24.699219 19.558594 27.089844 C 19.558594 29.480469 19.039062 31.417969 18.402344 31.417969 Z M 18.402344 31.417969 "/>
</g>
</svg>
