<?xml version="1.0" encoding="UTF-8"?>
<svg xmlns="http://www.w3.org/2000/svg" xmlns:xlink="http://www.w3.org/1999/xlink" width="39pt" height="50pt" viewBox="0 0 39 50" version="1.1">
<g id="surface1">
<path style=" stroke:none;fill-rule:nonzero;fill:rgb(0%,0%,0%);fill-opacity:1;" d="M 11.65625 30.90625 C 10.167969 29.738281 8.585938 28.621094 7.5 27.046875 C 5.222656 24.273438 3.46875 21.058594 2.269531 17.683594 C 1.542969 15.484375 1.296875 13.132812 0.359375 11.019531 C -0.617188 9.488281 0.527344 7.8125 2.210938 7.324219 C 2.960938 7.179688 4.277344 6.476562 2.6875 6.980469 C 1.261719 8.023438 1.125 6.03125 2.585938 5.90625 C 3.585938 5.773438 3.953125 4.960938 3.609375 4.226562 C 2.539062 3.527344 6.207031 2.761719 4.363281 1.722656 C 2.4375 -0.347656 7.050781 -0.746094 5.914062 1.605469 C 5.640625 3.414062 9.136719 1.273438 8.324219 3.359375 C 9.152344 4.363281 11.414062 3.589844 11.359375 4.996094 C 12.558594 5.078125 12.972656 6.085938 14.097656 6.164062 C 15.269531 6.691406 17.386719 7.105469 17.78125 8.417969 C 16.625 9.332031 13.941406 6.527344 13.808594 9.0625 C 14.160156 12.804688 14.070312 16.664062 15.445312 20.226562 C 16.09375 22.386719 17.667969 24.085938 19.089844 25.769531 C 20.449219 27.414062 22.292969 28.574219 24.171875 29.550781 C 25.820312 30.324219 27.597656 30.839844 29.390625 31.160156 C 30.121094 30.605469 31.40625 28.539062 32.542969 29.410156 C 32.597656 30.390625 30.289062 31.457031 32.433594 31.351562 C 33.695312 30.96875 34.570312 32.320312 35.605469 31.101562 C 36.5625 32.230469 39.582031 30.378906 38.902344 32.691406 C 37.980469 33.28125 36.640625 32.925781 35.71875 33.738281 C 34.199219 32.984375 32.988281 34.417969 31.304688 34.234375 C 29.4375 34.570312 27.539062 34.703125 25.644531 34.707031 C 22.535156 34.460938 19.363281 34.359375 16.410156 33.28125 C 14.742188 32.796875 13.117188 31.851562 11.65625 30.90625 Z M 14.277344 32.039062 C 15.902344 32.738281 17.496094 33.480469 19.277344 33.703125 C 22.101562 34.09375 25.023438 34.699219 27.859375 34.148438 C 26.578125 33.570312 25.25 34.371094 23.96875 33.734375 C 22.433594 34.0625 20.789062 33.648438 19.226562 33.445312 C 17.457031 32.660156 15.539062 32.117188 13.878906 31.09375 C 11.804688 30.335938 14.953125 32.0625 15.515625 32.203125 C 16.8125 32.9375 14.085938 31.828125 13.703125 31.523438 C 12.617188 30.914062 12.476562 31.039062 13.59375 31.65625 C 13.820312 31.789062 14.042969 31.925781 14.277344 32.039062 Z M 11.183594 29.859375 C 12.761719 30.441406 11.175781 28.753906 10.457031 28.851562 C 10.136719 28.296875 9.234375 27.945312 9.871094 27.648438 C 8.726562 28.046875 8.671875 26.140625 8.132812 26.414062 C 6.921875 26.03125 7.660156 24.679688 6.21875 23.851562 C 6.085938 22.976562 4.785156 22.21875 4.371094 20.898438 C 4.1875 20.222656 2.898438 18.285156 3.691406 20.089844 C 4.363281 21.828125 5.546875 23.316406 6.535156 24.800781 C 7.300781 26.214844 8.203125 27.695312 9.597656 28.578125 C 10.066406 29.027344 10.519531 29.71875 11.183594 29.859375 Z M 6.644531 24.886719 C 6.699219 24.648438 6.933594 25.398438 6.644531 24.886719 Z M 13.070312 30.554688 C 13.421875 30.398438 12.570312 30.359375 13.070312 30.554688 Z M 13.925781 30.867188 C 13.839844 30.4375 13.535156 31.105469 13.925781 30.867188 Z M 14.996094 31.3125 C 15.507812 30.828125 14.210938 31.007812 14.996094 31.3125 Z M 16.832031 32.332031 C 17.140625 31.875 15.839844 32.160156 16.832031 32.332031 Z M 13.308594 29.882812 C 14.101562 29.371094 12.285156 29.875 13.308594 29.882812 Z M 14.113281 30.28125 C 14.089844 30.011719 13.828125 30.402344 14.113281 30.28125 Z M 18.125 32.78125 C 18.769531 33.1875 21.894531 33.671875 19.9375 32.949219 C 19.609375 33.015625 16.3125 32.015625 18.125 32.78125 Z M 11.753906 27.828125 C 11.691406 27.558594 10.75 27.53125 11.753906 27.828125 Z M 13.621094 28.917969 C 14.109375 28.578125 12.613281 28.65625 13.621094 28.917969 Z M 15.195312 29.878906 C 15.890625 29.617188 14.0625 29.613281 15.195312 29.878906 Z M 10.992188 27.003906 C 11.75 27.582031 14.046875 27.078125 12.152344 26.65625 C 11.289062 26.199219 9.347656 25.886719 10.671875 26.933594 Z M 16.257812 30.210938 C 16.574219 29.675781 14.9375 29.902344 16.257812 30.210938 Z M 14.660156 28.941406 C 16.511719 29.464844 13.101562 27.773438 14.203125 28.75 L 14.445312 28.859375 Z M 17.867188 30.792969 C 19.621094 30.808594 16.28125 30.550781 17.867188 30.792969 Z M 10.320312 25.992188 C 10.25 25.667969 9.886719 26.019531 10.320312 25.992188 Z M 20.832031 32.449219 C 20.878906 31.863281 20.261719 32.890625 20.832031 32.449219 Z M 13.3125 27.820312 C 13.203125 27.507812 12.761719 27.808594 13.3125 27.820312 Z M 10.484375 25.789062 C 11.492188 25.726562 9.105469 25.34375 10.484375 25.789062 Z M 7.136719 23.628906 C 7.011719 23.148438 6.042969 22.761719 7.136719 23.628906 Z M 15.925781 29.191406 C 15.742188 28.984375 15.839844 29.238281 15.925781 29.191406 Z M 21.394531 32.542969 C 21.378906 32.222656 21.097656 32.664062 21.394531 32.542969 Z M 15.441406 28.695312 C 15.539062 28.28125 14.582031 28.570312 15.441406 28.695312 Z M 11.367188 26.117188 C 12.117188 26.039062 10.167969 25.613281 11.367188 26.117188 Z M 18.261719 30.390625 C 19.429688 29.929688 17.121094 30.167969 18.261719 30.390625 Z M 14.675781 27.964844 C 16.019531 28.136719 13.074219 27.050781 14.378906 27.867188 Z M 19.347656 30.828125 C 20.605469 30.082031 20.191406 32.585938 21.480469 31.042969 C 22.75 30.117188 20.382812 32.1875 21.949219 31.207031 C 23.082031 30.449219 24.753906 31.566406 25.8125 31.929688 C 26.574219 31.890625 27.3125 32.585938 28.089844 32.164062 C 29.589844 31.757812 25.15625 31.5625 26.320312 30.851562 C 24.945312 31.25 23.933594 30.375 23.257812 29.496094 C 21.71875 29.140625 19.9375 28.355469 19.167969 26.996094 C 18.855469 26.488281 19.621094 27.070312 18.898438 26.234375 C 17.96875 25.410156 17.507812 24.476562 16.882812 23.476562 C 16.140625 23.082031 16.050781 21.914062 15.976562 23.4375 C 15.984375 22.476562 15.078125 21.828125 14.855469 22.097656 C 14.851562 21.171875 15.824219 21.636719 15.144531 20.953125 C 15 19.992188 14.515625 18.992188 14.371094 17.910156 C 14.148438 17.386719 14.339844 16.269531 13.601562 17.453125 C 13.335938 18.699219 13.515625 15.917969 13.933594 16.835938 C 14.480469 15.898438 13.734375 16.007812 13.703125 16.136719 C 14.0625 15.347656 13.929688 14.226562 13.609375 14.652344 C 13.800781 13.816406 13.910156 11.570312 13.328125 11.96875 C 13.679688 11.09375 14 7.960938 12.460938 9.15625 C 11.835938 9.164062 10.753906 9.382812 10.246094 9.636719 C 11.847656 10.515625 10.082031 9.953125 9.429688 9.8125 C 9.347656 10.628906 8.699219 10.277344 7.894531 10.285156 C 9.183594 10.441406 7.265625 11.597656 6.527344 11.148438 C 5.566406 11.605469 7.355469 12.75 6.546875 13.101562 C 6.648438 13.632812 5.078125 12.910156 5.199219 14.140625 C 4.269531 13.75 5.070312 15.597656 5.539062 14.972656 C 7.121094 15.402344 6.652344 16.375 6.695312 17.304688 C 6.433594 17.84375 5.417969 16.035156 6.46875 16.117188 C 5.640625 14.777344 5.550781 15.632812 4.863281 16.257812 C 4.707031 16.300781 6.617188 17.144531 5.417969 17.558594 C 6.472656 17.722656 6.503906 18.644531 6.71875 19.226562 C 7.355469 19.886719 7.222656 18.5 7.984375 19.292969 C 7.503906 18.585938 5.4375 17.300781 7.101562 17.710938 C 7.089844 17 6.800781 16.429688 7.308594 16.441406 C 7.8125 15.53125 6.78125 18.691406 7.917969 17.53125 C 8.234375 17.394531 8.3125 16.617188 8.878906 17.605469 C 9.699219 18.410156 9.175781 18.996094 8.015625 18.257812 C 8.222656 18.960938 9.566406 19.210938 9.3125 20.308594 C 9.582031 21.273438 9.953125 20.917969 10.28125 20.863281 C 10.539062 21.800781 10.683594 21.109375 10.695312 20.664062 C 11.867188 20.914062 11.59375 21.605469 11.960938 22.089844 C 12.769531 22.453125 10.804688 19.625 12.191406 21.238281 C 13.648438 22.554688 12.738281 23.101562 11.429688 22.890625 C 12.257812 22.824219 12.523438 24.007812 13.5625 23.96875 C 14.507812 24.417969 15.148438 26.140625 13.515625 25.421875 C 12.953125 24.914062 10.949219 24.285156 12.585938 25.253906 C 14.09375 25.949219 15.292969 26.367188 16.75 27.242188 C 17.789062 27.984375 18.238281 28.832031 18.632812 29 C 17.757812 29.417969 15.996094 28.667969 17.304688 28.4375 C 16.488281 28.289062 15.570312 27.878906 16.351562 28.894531 C 17.019531 29.449219 18.707031 29.390625 19.011719 29.453125 C 18.753906 30.015625 18.3125 30.0625 19.023438 30.105469 C 18.230469 30.523438 19.277344 30.589844 19.347656 30.828125 Z M 17.734375 26.277344 C 17.253906 25.777344 17.128906 24.835938 17.648438 25.652344 C 17.914062 25.761719 18.5 27.1875 17.734375 26.277344 Z M 22.996094 29.613281 C 23.296875 29.59375 23.003906 29.839844 22.996094 29.613281 Z M 16.972656 25.046875 C 16.957031 24.289062 17.148438 25.632812 16.972656 25.046875 Z M 16.453125 24.34375 C 15.84375 23.179688 17.214844 24.675781 16.453125 24.34375 Z M 10.109375 19.980469 C 10.46875 19.886719 10.285156 20.585938 10.109375 19.980469 Z M 15.15625 22.707031 C 15.375 21.890625 15.414062 23.394531 15.15625 22.707031 Z M 11.59375 20.234375 C 11.34375 19.785156 12.117188 20.660156 11.59375 20.234375 Z M 14.652344 21.214844 C 14.078125 19.933594 15.058594 20.515625 14.777344 21.421875 Z M 9.375 17.707031 C 9.121094 17.285156 8.695312 16.050781 8.832031 15.675781 C 8.957031 16.289062 10.140625 18.3125 9.414062 16.515625 C 8.609375 15.007812 10.371094 17.003906 10.554688 17.378906 C 10.636719 17.753906 10.058594 17.277344 10.449219 18.15625 C 9.734375 17.15625 10.027344 18.707031 9.375 17.707031 Z M 7.746094 16.585938 C 7.8125 15.605469 8.117188 17.253906 7.746094 16.585938 Z M 8.480469 16.835938 C 8.828125 16.097656 9.074219 17.863281 8.480469 16.835938 Z M 6.714844 15.476562 C 6.109375 14.871094 5.667969 14.320312 6.746094 15.101562 C 7.15625 15.117188 5.824219 13.839844 6.84375 14.695312 C 7.914062 14.890625 7.371094 16.449219 6.714844 15.476562 Z M 7.640625 15.453125 C 7.996094 15.101562 7.828125 15.792969 7.640625 15.453125 Z M 8.210938 15.632812 C 7.675781 14.632812 8.859375 16.050781 8.210938 15.632812 Z M 7.078125 14.554688 C 5.316406 12.984375 9.296875 15.371094 7.367188 14.84375 Z M 12.132812 17.484375 C 11.371094 17.027344 11.929688 14.269531 12.191406 16.152344 C 12.933594 15.914062 12.152344 17.128906 12.703125 17.117188 C 12.617188 17.882812 12.371094 18.160156 12.132812 17.484375 Z M 14.003906 18.585938 C 14.078125 17.753906 14.160156 19.152344 14.003906 18.585938 Z M 13.679688 18.265625 C 13.761719 17.910156 13.6875 18.683594 13.679688 18.265625 Z M 7.425781 14.039062 C 6.292969 12.476562 10.71875 15.617188 8.152344 14.433594 C 7.882812 14.363281 7.558594 14.339844 7.425781 14.039062 Z M 11.027344 15.941406 C 10.917969 14.628906 11.265625 16.160156 11.027344 15.941406 Z M 13.757812 17.691406 C 13.96875 16.945312 13.777344 18.1875 13.757812 17.691406 Z M 7.597656 13.441406 C 8.273438 13.296875 10.390625 14.621094 8.445312 13.820312 C 8.230469 13.582031 7.769531 13.691406 7.597656 13.441406 Z M 13.382812 16.320312 C 13.457031 14.976562 13.785156 15.515625 13.386719 16.511719 Z M 8.101562 12.976562 C 8.375 12.574219 7.371094 11.160156 8.246094 12.46875 C 8.621094 12.765625 9.335938 12.96875 8.707031 13.09375 C 9.699219 13.96875 8.464844 13.332031 8.101562 12.976562 Z M 13.097656 15.898438 C 13.289062 14.367188 13.265625 16.796875 13.097656 15.898438 Z M 7.527344 11.5625 C 7.738281 11.472656 7.636719 11.839844 7.527344 11.5625 Z M 8.832031 12.335938 C 9.164062 11.632812 9.449219 13.117188 8.832031 12.335938 Z M 12.507812 14.375 C 12.503906 14.105469 12.578125 14.769531 12.507812 14.375 Z M 12.292969 13.90625 C 11.785156 12.648438 12.769531 14.570312 12.292969 13.90625 Z M 11.980469 13.082031 C 11.894531 12.5625 12.273438 13.734375 11.980469 13.082031 Z M 12.492188 12.253906 C 12.140625 11.640625 12.933594 9.542969 13.023438 10.84375 C 12.652344 11.855469 12.914062 12.421875 13.171875 11.0625 C 13.648438 9.996094 13.070312 13.175781 12.492188 12.253906 Z M 13.015625 9.136719 C 13.167969 8.949219 13.050781 9.359375 13.015625 9.136719 Z M 12.140625 26.339844 C 11.933594 26.160156 12.167969 26.457031 12.140625 26.339844 Z M 13.941406 27.25 C 14.945312 27.507812 14.941406 27.09375 14.035156 26.972656 C 13.546875 26.519531 12.007812 26.039062 13.386719 26.917969 C 13.476562 27.148438 13.765625 27.140625 13.941406 27.25 Z M 10.382812 24.890625 C 10.933594 25.300781 12.464844 26.054688 11.167969 25.046875 C 11.605469 24.542969 10.335938 24.273438 10.757812 23.933594 C 9.683594 23.277344 9.910156 23.339844 10.660156 23.359375 C 9.371094 22.785156 10.847656 22.828125 10.777344 22.53125 C 10.28125 22.433594 8.308594 21.65625 9.46875 22.59375 C 8.289062 21.996094 9.1875 22.820312 8.832031 22.734375 C 7.625 22.40625 9.90625 23.648438 8.640625 23.339844 C 9.332031 23.886719 10.503906 24.742188 8.933594 23.917969 C 8.726562 24.214844 10.054688 24.664062 10.382812 24.890625 Z M 12.269531 25.972656 C 14.558594 26.707031 11.144531 25.070312 12.269531 25.972656 Z M 21.921875 31.804688 C 21.949219 31.351562 21.609375 32.191406 21.921875 31.804688 Z M 22.914062 32.222656 C 23.441406 31.710938 22.933594 33.039062 23.789062 32.097656 C 23.800781 31.425781 23.765625 31.027344 22.808594 31.84375 C 22.542969 31.992188 22.425781 32.609375 22.914062 32.222656 Z M 7.164062 22.355469 C 7 21.71875 6.023438 21.722656 7.164062 22.355469 Z M 8.222656 23.046875 C 7.828125 22.398438 6.820312 22.457031 8.222656 23.046875 Z M 14.25 26.675781 C 14.839844 27.195312 16.953125 27.054688 14.964844 26.738281 C 14.671875 26.304688 13.097656 26.410156 14.25 26.675781 Z M 22.535156 31.777344 C 23.441406 31.019531 21.660156 32.117188 22.535156 31.777344 Z M 24.417969 33.070312 C 24.425781 32.828125 24.027344 33.175781 24.417969 33.070312 Z M 24.421875 32.730469 C 25.425781 31.667969 23.453125 32.792969 24.421875 32.730469 Z M 4.558594 20.179688 C 3.703125 18.960938 4.027344 18.414062 3.203125 17.421875 C 3.046875 16.660156 1.789062 14.9375 2.550781 16.765625 C 3.25 17.832031 3.457031 19.484375 4.558594 20.179688 Z M 24.109375 32.390625 C 25.953125 31.203125 23.351562 31.875 24.109375 32.390625 Z M 25.515625 32.941406 C 26.441406 32.152344 24.933594 32.777344 25.515625 32.941406 Z M 6.851562 21.011719 C 7.113281 20.617188 6.167969 20.960938 6.851562 21.011719 Z M 25.222656 32.566406 C 26.117188 31.992188 25.015625 32.078125 25.058594 32.621094 Z M 13.082031 24.933594 C 13.050781 24.542969 12.609375 24.964844 13.082031 24.933594 Z M 13.832031 25.363281 C 13.59375 24.882812 13.464844 25.4375 13.832031 25.363281 Z M 26.65625 32.957031 C 27.804688 32.128906 25.964844 32.796875 26.417969 33.113281 Z M 26.21875 32.742188 C 27.152344 31.964844 25.234375 33.089844 26.21875 32.742188 Z M 28.460938 34.234375 C 29.089844 33.816406 27.699219 34.097656 28.460938 34.234375 Z M 7.425781 20.726562 C 8.265625 20.914062 10.78125 22.792969 9.296875 20.859375 C 8.535156 20.632812 8.992188 18.777344 8.214844 19.105469 C 8.738281 19.972656 8.644531 20.34375 7.550781 19.796875 C 6.175781 19.125 6.777344 20.128906 7.046875 20.402344 C 6.679688 20.488281 7.53125 20.71875 7.425781 20.726562 Z M 3.597656 17.710938 C 3.746094 17.089844 2.210938 14.296875 2.871094 16.3125 C 3.109375 16.734375 3.085938 17.53125 3.597656 17.710938 Z M 10.625 22.03125 C 10.191406 21.671875 10.601562 21.980469 10.625 22.03125 Z M 11.6875 22.28125 C 11.6875 21.621094 10.511719 22.011719 11.6875 22.28125 Z M 20.921875 28.085938 C 20.746094 27.636719 20.226562 28.078125 20.921875 28.085938 Z M 21.367188 28.410156 C 21.300781 28.160156 21.109375 28.457031 21.367188 28.410156 Z M 25.027344 30.710938 C 25.378906 30.453125 24.585938 30.675781 25.027344 30.710938 Z M 5.507812 18.199219 C 6.515625 17.808594 4.429688 17.921875 5.507812 18.199219 Z M 20.109375 27.375 C 20.097656 26.722656 19.46875 27.535156 20.109375 27.375 Z M 5.109375 17.273438 C 5.757812 17.054688 4.511719 17.128906 5.109375 17.273438 Z M 6.988281 18.179688 C 6.976562 17.964844 6.789062 18.261719 6.988281 18.179688 Z M 29.882812 32.1875 C 30.714844 32.019531 32.613281 32.609375 32.917969 31.96875 C 31.90625 31.941406 29.425781 31.257812 29.308594 32.128906 L 29.527344 32.164062 Z M 7.585938 18.332031 C 7.597656 17.671875 7.070312 18.304688 7.585938 18.332031 Z M 2.648438 14.914062 C 2.425781 13.660156 1.796875 14.726562 2.648438 14.914062 Z M 3.824219 15.210938 C 3.839844 14.804688 2.75 14.847656 3.824219 15.210938 Z M 4.496094 15.539062 C 4.304688 15.382812 4.347656 15.738281 4.496094 15.539062 Z M 8.730469 18.246094 C 8.929688 18.066406 8.257812 18.113281 8.730469 18.246094 Z M 4.050781 14.796875 C 3.9375 13.847656 2.6875 14.652344 4.050781 14.796875 Z M 1.636719 13.234375 C 1.601562 12.796875 1.402344 13.398438 1.636719 13.234375 Z M 1.996094 12.964844 C 1.9375 12.445312 1.6875 13.03125 1.996094 12.964844 Z M 3.980469 14.144531 C 4.816406 13.816406 2.453125 13.464844 3.808594 14.082031 Z M 30.519531 30.5 C 31.058594 30.007812 29.839844 30.347656 30.519531 30.5 Z M 33.726562 32.15625 C 33.941406 31.523438 33.1875 32.242188 33.726562 32.15625 Z M 4.183594 13.109375 C 4.269531 12.492188 3.515625 13.230469 4.183594 13.109375 Z M 1.359375 11.222656 C 1.207031 10.355469 1.230469 8.832031 2.679688 9.347656 C 0.746094 9.730469 4.019531 11.746094 3.605469 10.15625 C 4.417969 10.195312 5.199219 9.675781 4.769531 10.464844 C 6.375 10.289062 7.484375 8.898438 9.035156 9.09375 C 10.238281 8.933594 11.558594 8.816406 12.859375 8.328125 C 13.929688 8.253906 14.957031 7.105469 14.371094 6.425781 C 12.914062 6.300781 11.386719 6.484375 9.777344 6.804688 C 7.992188 7.171875 6.371094 7.875 4.570312 8.179688 C 2.8125 8.414062 4.921875 8.828125 4.417969 8.917969 C 3.503906 9.234375 5.511719 9.449219 4.300781 9.785156 C 3.550781 9.644531 2.773438 9.386719 3.09375 8.597656 C 1.410156 8.816406 -0.0664062 9.511719 1.261719 11.222656 Z M 5.414062 9.164062 C 5.808594 7.714844 7.527344 10.355469 6.058594 9.355469 C 5.882812 9.222656 5.59375 9.117188 5.414062 9.164062 Z M 5.488281 8.460938 C 6.058594 8.039062 5.792969 8.699219 5.488281 8.460938 Z M 6.210938 8.472656 C 6.265625 7.804688 7.867188 8.824219 6.476562 8.710938 Z M 7.199219 8.074219 C 7.5625 7.652344 7.304688 8.449219 7.199219 8.074219 Z M 7.453125 7.90625 C 8.054688 7.1875 10.859375 7.445312 8.804688 7.835938 C 8.257812 7.421875 7.835938 8.078125 7.453125 7.90625 Z M 11.113281 7.34375 C 11.019531 5.375 12.929688 8.042969 11.113281 7.34375 Z M 12.148438 7.339844 C 12.527344 6.347656 13.621094 6.941406 12.324219 7.136719 C 12.355469 7.246094 12.289062 7.652344 12.148438 7.339844 Z M 3.773438 12.597656 C 4.90625 11.90625 2.570312 11.996094 3.773438 12.597656 Z M 4.613281 12.832031 C 5.007812 12.410156 3.746094 12.660156 4.613281 12.832031 Z M 2.140625 11.082031 C 2.789062 10.585938 1.375 10.894531 2.140625 11.082031 Z M 35.621094 31.976562 C 35.640625 31.398438 35.125 32.234375 35.621094 31.976562 Z M 32.21875 29.660156 C 32.316406 28.996094 31.78125 29.71875 32.21875 29.660156 Z M 36.554688 32.199219 C 37.460938 32.203125 39.300781 31.917969 37.332031 31.921875 C 37.019531 31.96875 35.527344 31.957031 36.554688 32.199219 Z M 5.347656 12.425781 C 6.082031 12.375 6.496094 11.617188 5.207031 11.660156 C 3.207031 11.457031 6.96875 12.34375 4.949219 12.089844 C 4.679688 12.269531 5.332031 12.472656 5.347656 12.425781 Z M 5.996094 12.75 C 5.917969 12.28125 5.765625 13 5.996094 12.75 Z M 6.761719 10.714844 C 7.078125 10.320312 6.320312 10.609375 6.761719 10.714844 Z M 4.320312 6.648438 C 5.628906 6.203125 7.417969 5.707031 8.039062 6.867188 C 7.410156 6.113281 7.785156 5.367188 8.378906 6.472656 C 9.21875 7.589844 9.636719 5.964844 9.089844 5.589844 C 9.714844 6.359375 10.421875 6.726562 9.507812 5.640625 C 10.5 4.445312 7.519531 5.792969 6.84375 5.78125 C 6.515625 5.925781 3.476562 6.554688 4.320312 6.648438 Z M 5.089844 5.183594 C 5.835938 4.621094 7.667969 5.515625 6.492188 4.625 C 6.375 4.523438 3.914062 5.300781 5.089844 5.183594 Z M 7.808594 5.292969 C 8.683594 5.316406 7.433594 4.125 8.472656 4.664062 C 8.300781 4.109375 7.261719 4.003906 6.753906 3.78125 C 6.464844 4.289062 7.339844 5.300781 7.808594 5.292969 Z M 5.566406 2.832031 C 5.867188 2.421875 5.035156 3.039062 5.566406 2.832031 Z M 6.675781 3.097656 C 8.085938 2.910156 6.320312 2.492188 6.394531 3.082031 Z M 4.601562 1.476562 C 3.609375 0.1875 6.464844 1.695312 5.457031 0.34375 C 4.609375 -0.332031 3.796875 1.101562 4.601562 1.476562 Z M 17.316406 8.308594 C 17.773438 7.507812 15.441406 7.226562 17.011719 8.023438 C 17.15625 8.074219 17.125 8.363281 17.316406 8.308594 Z M 17.316406 8.308594 "/>
<path style=" stroke:none;fill-rule:nonzero;fill:rgb(0%,0%,0%);fill-opacity:1;" d="M 8.089844 38.222656 C 7.988281 38.617188 7.929688 39.28125 7.90625 40.214844 C 7.90625 40.398438 7.820312 40.488281 7.65625 40.488281 C 7.488281 40.488281 7.375 40.410156 7.308594 40.25 C 7.132812 39.820312 6.964844 39.519531 6.804688 39.347656 C 6.613281 39.144531 6.363281 39.023438 6.046875 38.984375 C 5.710938 38.929688 4.871094 38.902344 3.527344 38.902344 C 3.21875 38.902344 3.015625 38.9375 2.921875 39 C 2.863281 39.042969 2.832031 39.132812 2.832031 39.265625 L 2.832031 43.28125 C 2.832031 43.417969 2.917969 43.480469 3.089844 43.476562 C 3.617188 43.46875 4.382812 43.433594 5.382812 43.367188 C 5.578125 43.34375 5.710938 43.28125 5.777344 43.179688 C 5.84375 43.074219 5.914062 42.808594 5.976562 42.375 C 6.019531 42.140625 6.15625 42.046875 6.394531 42.101562 C 6.59375 42.144531 6.683594 42.234375 6.652344 42.375 C 6.488281 43.179688 6.433594 44.226562 6.492188 45.511719 C 6.5 45.667969 6.402344 45.75 6.199219 45.761719 C 6.03125 45.777344 5.929688 45.691406 5.886719 45.496094 C 5.734375 44.757812 5.449219 44.363281 5.03125 44.3125 C 4.613281 44.261719 3.933594 44.238281 2.992188 44.238281 C 2.886719 44.238281 2.832031 44.277344 2.832031 44.351562 L 2.832031 48.339844 C 2.832031 48.632812 2.941406 48.835938 3.160156 48.941406 C 3.332031 49.03125 3.703125 49.109375 4.273438 49.179688 C 4.5625 49.210938 4.6875 49.339844 4.652344 49.5625 C 4.617188 49.757812 4.359375 49.832031 3.871094 49.792969 C 2.46875 49.679688 1.3125 49.6875 0.398438 49.8125 C 0.144531 49.84375 0.0195312 49.742188 0.0195312 49.5 C 0.0195312 49.347656 0.144531 49.257812 0.398438 49.234375 C 0.980469 49.167969 1.269531 48.660156 1.269531 47.710938 L 1.269531 40.125 C 1.269531 39.738281 1.199219 39.4375 1.0625 39.226562 C 0.921875 39.015625 0.664062 38.828125 0.285156 38.65625 C 0.046875 38.550781 -0.0429688 38.40625 0.0195312 38.222656 C 0.046875 38.109375 0.09375 38.046875 0.160156 38.035156 C 0.21875 38.015625 0.375 38.027344 0.628906 38.070312 C 1.003906 38.128906 1.882812 38.160156 3.269531 38.160156 C 4.902344 38.160156 6.3125 38.125 7.503906 38.054688 C 7.902344 38.027344 8.101562 38.0625 8.101562 38.148438 C 8.101562 38.175781 8.097656 38.199219 8.089844 38.222656 Z M 8.089844 38.222656 "/>
<path style=" stroke:none;fill-rule:nonzero;fill:rgb(0%,0%,0%);fill-opacity:1;" d="M 13.851562 49.46875 C 13.851562 49.703125 13.71875 49.808594 13.449219 49.777344 C 12.632812 49.703125 11.621094 49.714844 10.414062 49.8125 C 10.171875 49.835938 10.019531 49.832031 9.964844 49.796875 C 9.910156 49.761719 9.878906 49.664062 9.878906 49.503906 C 9.878906 49.363281 10.042969 49.242188 10.363281 49.144531 C 10.6875 49.046875 10.847656 48.757812 10.847656 48.273438 L 10.847656 40.253906 C 10.847656 39.773438 10.777344 39.421875 10.640625 39.199219 C 10.5 38.976562 10.257812 38.800781 9.90625 38.675781 C 9.722656 38.613281 9.632812 38.519531 9.632812 38.402344 C 9.632812 38.226562 9.765625 38.089844 10.03125 38.003906 C 10.433594 37.875 10.851562 37.671875 11.285156 37.402344 C 11.640625 37.1875 11.863281 37.082031 11.957031 37.082031 C 12.175781 37.082031 12.289062 37.230469 12.289062 37.535156 C 12.289062 37.511719 12.277344 37.804688 12.25 38.417969 C 12.234375 39.003906 12.226562 39.578125 12.234375 40.148438 L 12.269531 48.058594 C 12.269531 48.417969 12.359375 48.679688 12.535156 48.84375 C 12.714844 49.007812 13.019531 49.113281 13.449219 49.167969 C 13.71875 49.195312 13.851562 49.296875 13.851562 49.46875 Z M 13.851562 49.46875 "/>
<path style=" stroke:none;fill-rule:nonzero;fill:rgb(0%,0%,0%);fill-opacity:1;" d="M 21.882812 48.945312 C 21.882812 49.070312 21.65625 49.257812 21.203125 49.507812 C 20.75 49.757812 20.386719 49.886719 20.117188 49.886719 C 19.886719 49.886719 19.679688 49.773438 19.503906 49.546875 C 19.324219 49.324219 19.199219 49.210938 19.128906 49.210938 C 19.078125 49.210938 18.796875 49.332031 18.285156 49.574219 C 17.777344 49.816406 17.265625 49.9375 16.75 49.9375 C 16.265625 49.9375 15.859375 49.796875 15.53125 49.511719 C 15.175781 49.199219 15 48.773438 15 48.238281 C 15 47.214844 16.171875 46.484375 18.515625 46.039062 C 18.917969 45.964844 19.125 45.800781 19.128906 45.550781 L 19.148438 44.984375 C 19.183594 44.015625 18.753906 43.53125 17.859375 43.53125 C 17.605469 43.53125 17.363281 43.757812 17.136719 44.214844 C 16.910156 44.667969 16.582031 44.914062 16.15625 44.949219 C 15.667969 44.996094 15.425781 44.792969 15.425781 44.339844 C 15.425781 44.054688 15.789062 43.726562 16.511719 43.347656 C 17.269531 42.949219 17.996094 42.753906 18.695312 42.753906 C 19.898438 42.753906 20.492188 43.324219 20.480469 44.464844 L 20.445312 48.113281 C 20.4375 48.496094 20.601562 48.6875 20.933594 48.6875 C 21 48.6875 21.121094 48.675781 21.304688 48.644531 C 21.488281 48.613281 21.597656 48.601562 21.625 48.601562 C 21.796875 48.601562 21.882812 48.714844 21.882812 48.945312 Z M 19.148438 46.925781 C 19.152344 46.777344 19.121094 46.679688 19.046875 46.632812 C 18.972656 46.585938 18.855469 46.578125 18.695312 46.605469 C 17.269531 46.859375 16.554688 47.324219 16.554688 47.996094 C 16.554688 48.675781 16.925781 49.015625 17.664062 49.015625 C 17.960938 49.015625 18.265625 48.960938 18.578125 48.847656 C 18.945312 48.71875 19.128906 48.5625 19.128906 48.378906 Z M 19.148438 46.925781 "/>
<path style=" stroke:none;fill-rule:nonzero;fill:rgb(0%,0%,0%);fill-opacity:1;" d="M 28.488281 47.925781 C 28.488281 48.554688 28.246094 49.050781 27.761719 49.417969 C 27.28125 49.789062 26.621094 49.972656 25.785156 49.972656 C 25.230469 49.972656 24.671875 49.914062 24.117188 49.796875 C 23.636719 49.691406 23.359375 49.59375 23.28125 49.503906 C 23.234375 49.421875 23.210938 49.015625 23.210938 48.289062 C 23.210938 47.976562 23.28125 47.816406 23.425781 47.804688 C 23.566406 47.785156 23.6875 47.863281 23.789062 48.03125 C 24.230469 48.808594 24.949219 49.195312 25.9375 49.195312 C 26.773438 49.195312 27.1875 48.902344 27.1875 48.324219 C 27.1875 48.070312 27.09375 47.859375 26.90625 47.6875 C 26.699219 47.492188 26.296875 47.265625 25.699219 47.003906 C 24.832031 46.621094 24.253906 46.285156 23.964844 45.996094 C 23.652344 45.6875 23.496094 45.273438 23.496094 44.753906 C 23.496094 44.117188 23.742188 43.621094 24.230469 43.265625 C 24.6875 42.921875 25.296875 42.753906 26.0625 42.753906 C 26.539062 42.753906 26.980469 42.789062 27.375 42.867188 C 27.800781 42.945312 28.023438 43.039062 28.042969 43.152344 C 28.089844 43.480469 28.1875 43.960938 28.335938 44.585938 C 28.351562 44.664062 28.269531 44.726562 28.085938 44.773438 C 27.890625 44.8125 27.761719 44.78125 27.695312 44.675781 C 27.226562 43.914062 26.636719 43.53125 25.917969 43.53125 C 25.109375 43.53125 24.703125 43.792969 24.703125 44.3125 C 24.703125 44.601562 24.8125 44.832031 25.03125 45.003906 C 25.226562 45.148438 25.683594 45.382812 26.40625 45.695312 C 27.164062 46.019531 27.679688 46.3125 27.953125 46.570312 C 28.308594 46.90625 28.488281 47.359375 28.488281 47.925781 Z M 28.488281 47.925781 "/>
<path style=" stroke:none;fill-rule:nonzero;fill:rgb(0%,0%,0%);fill-opacity:1;" d="M 38.933594 49.476562 C 38.933594 49.683594 38.796875 49.792969 38.519531 49.804688 C 38.101562 49.8125 37.5625 49.839844 36.890625 49.894531 C 36.5625 49.957031 36.324219 49.917969 36.183594 49.769531 C 35.246094 48.765625 34.453125 47.714844 33.800781 46.617188 C 33.75 46.519531 33.679688 46.472656 33.597656 46.472656 C 33.496094 46.472656 33.320312 46.5625 33.074219 46.738281 C 32.792969 46.894531 32.65625 47.113281 32.65625 47.394531 C 32.65625 47.597656 32.660156 47.886719 32.671875 48.265625 C 32.683594 48.640625 32.78125 48.890625 32.957031 49.007812 C 33.082031 49.089844 33.371094 49.15625 33.820312 49.203125 C 34.097656 49.238281 34.238281 49.339844 34.238281 49.511719 C 34.238281 49.648438 34.214844 49.734375 34.171875 49.765625 C 34.125 49.796875 34.007812 49.804688 33.820312 49.789062 C 33.226562 49.734375 32.226562 49.765625 30.816406 49.875 C 30.460938 49.90625 30.269531 49.859375 30.238281 49.742188 C 30.226562 49.703125 30.222656 49.644531 30.222656 49.566406 C 30.222656 49.382812 30.402344 49.242188 30.765625 49.148438 C 31.089844 49.066406 31.253906 48.6875 31.253906 48.007812 L 31.253906 40.261719 C 31.253906 39.777344 31.207031 39.441406 31.109375 39.253906 C 30.980469 39.011719 30.707031 38.820312 30.292969 38.6875 C 30.097656 38.621094 30 38.53125 30 38.410156 C 30 38.238281 30.140625 38.105469 30.417969 38.011719 C 30.863281 37.863281 31.285156 37.660156 31.6875 37.402344 C 32.011719 37.1875 32.214844 37.082031 32.292969 37.082031 C 32.535156 37.082031 32.65625 37.234375 32.65625 37.542969 C 32.65625 37.5 32.652344 37.792969 32.644531 38.417969 C 32.640625 38.851562 32.636719 39.429688 32.636719 40.15625 L 32.65625 45.703125 C 32.65625 45.855469 32.695312 45.933594 32.78125 45.933594 C 32.867188 45.933594 33.003906 45.855469 33.1875 45.703125 C 33.679688 45.320312 34.285156 44.816406 35 44.195312 C 35.144531 44.050781 35.214844 43.929688 35.214844 43.84375 C 35.214844 43.683594 34.972656 43.570312 34.496094 43.503906 C 34.289062 43.480469 34.1875 43.367188 34.199219 43.160156 C 34.21875 42.953125 34.324219 42.863281 34.511719 42.894531 C 34.9375 42.953125 35.558594 42.984375 36.375 42.992188 C 36.945312 42.996094 37.511719 43 38.074219 43 C 38.257812 43.007812 38.347656 43.117188 38.347656 43.328125 C 38.347656 43.527344 38.203125 43.636719 37.914062 43.65625 C 37.457031 43.671875 37.027344 43.777344 36.625 43.964844 C 36.0625 44.21875 35.460938 44.667969 34.824219 45.304688 C 34.777344 45.339844 34.75 45.382812 34.75 45.4375 C 34.75 45.519531 34.851562 45.71875 35.054688 46.03125 C 35.792969 47.152344 36.492188 48 37.148438 48.574219 C 37.570312 48.933594 37.964844 49.113281 38.332031 49.113281 C 38.601562 49.113281 38.773438 49.132812 38.835938 49.171875 C 38.902344 49.210938 38.933594 49.3125 38.933594 49.476562 Z M 38.933594 49.476562 "/>
</g>
</svg>
